<svg xmlns="http://www.w3.org/2000/svg" viewBox="0 0 100 100">
  <defs>
    <linearGradient id="bg" x1="0%" y1="0%" x2="100%" y2="100%">
      <stop offset="0%" style="stop-color:#1e293b"/>
      <stop offset="100%" style="stop-color:#0f172a"/>
    </linearGradient>
    <radialGradient id="glow" cx="50%" cy="30%" r="60%">
      <stop offset="0%" style="stop-color:#059669;stop-opacity:0.3"/>
      <stop offset="100%" style="stop-color:#064e3b;stop-opacity:0"/>
    </radialGradient>
  </defs>
  
  <rect width="100" height="100" rx="22" fill="url(#bg)"/>
  <rect width="100" height="100" rx="22" fill="url(#glow)"/>
  <rect x="2" y="2" width="96" height="96" rx="20" fill="none" stroke="#f59e0b" stroke-opacity="0.3" stroke-width="2"/>
  
  <circle cx="50" cy="50" r="32" fill="#1e293b" stroke="#475569" stroke-width="2"/>
  <circle cx="50" cy="50" r="27" fill="#0f172a"/>
  <circle cx="50" cy="50" r="22" stroke="#fbbf24" stroke-width="4" fill="none" stroke-dasharray="10 5"/>
  <circle cx="50" cy="50" r="16" fill="#059669"/>
  <circle cx="50" cy="50" r="12" fill="#047857"/>
  
  <path d="M50 40 C50 40 42 48 42 53 C42 56 44 58 47.5 58 C49 58 50 57.5 50 56.5 C50 57.5 51 58 52.5 58 C56 58 58 56 58 53 C58 48 50 40 50 40Z" fill="#fbbf24"/>
  <path d="M48 58 L50 64 L52 58" fill="#fbbf24"/>
  
  <circle cx="50" cy="20" r="3" fill="#fbbf24"/>
  <circle cx="50" cy="80" r="3" fill="#fbbf24"/>
  <circle cx="20" cy="50" r="3" fill="#fbbf24"/>
  <circle cx="80" cy="50" r="3" fill="#fbbf24"/>
</svg>
